# xmcd
#
# Track frame offsets: 
#        150
#        17907
#        32070
#        48897
#        63042
#        83322
#        98775
#        115632
#        138447
#        151125
#        174880
#        187367
#        200822
#        214130
#        231715
#        249662
#
# Disc length: 3600 seconds
#
# Revision: 0
# Processed by: cddbd v1.4PL0 Copyright (c) Steve Scherf et al.
# Submitted via: ExactAudioCopy v0.90b2
#
DISCID=d60e0e10
DTITLE=The Bluesmakers - Blues 4 PoA
DYEAR=1996
DGENRE=Blues
TTITLE0=Ought To PLay The Blues
TTITLE1=Just Your Fool
TTITLE2=My Babe
TTITLE3=Your Time Has Gone
TTITLE4=Body And Soul
TTITLE5=You Shot Me
TTITLE6=Treat Me Right
TTITLE7=Worried Mind
TTITLE8=I Want To Be Loved
TTITLE9=Red House
TTITLE10=I Anin't Gonna Be Looking For You
TTITLE11=Don't Slam My Door
TTITLE12=Tomorrow Will Be Too Late
TTITLE13=Satisfy My Soul
TTITLE14=Too Much Suffer
TTITLE15=I Ain't Got No Reason To Cry
EXTD=
EXTT0=
EXTT1=
EXTT2=
EXTT3=
EXTT4=
EXTT5=
EXTT6=
EXTT7=
EXTT8=
EXTT9=
EXTT10=
EXTT11=
EXTT12=
EXTT13=
EXTT14=
EXTT15=
PLAYORDER=
